# xmcd
#
# Track frame offsets: 
#        150
#        16708
#        37564
#        53030
#        65495
#        81389
#        89716
#        106423
#        117837
#        136187
#        146748
#        161844
#        177096
#        188771
#        200640
#        211064
#
# Disc length: 3049 seconds
#
# Revision: 2
# Processed by: cddbd v1.5.2PL0 Copyright (c) Steve Scherf et al.
# Submitted via: ExactAudioCopy v0.99pb4
#
DISCID=d80be710
DTITLE=Various Artist - Twisted Willie
DYEAR=1996
DGENRE=Country
TTITLE0=Johnny Cash - Time of the Preacher
TTITLE1=L7 - Three Days
TTITLE2=Tenderloin - Shotgun Willie
TTITLE3=Supersuckers - Bloody Mary Morning
TTITLE4=Mark Lanegan - She's Not For You
TTITLE5=The Presidents of the USA - Devil in a Sleepin' Bag
TTITLE6=Jerry Cantrell - I've Seen All the World I Need To See
TTITLE7=Best Kissers of the World - Pick Up the Tempo
TTITLE8=Jello Biafra w. Life After Life - Still Is Sill Moving To Me
TTITLE9=Waylon Jennings - I Never Cared For You
TTITLE10=Reverand Horton Heat - Hello Walls
TTITLE11=Gas Huffer - I Gotta Get Drunk
TTITLE12=Steel Hole Bath Tub - The Ghost
TTITLE13=Jesse Dayton - Sad Songs and Waltzes
TTITLE14=X - Home Motel
TTITLE15=Kelly Deal w. Kris Kristofferson - Angel Flying To Close to t
TTITLE15=he Ground
EXTD=
EXTT0=
EXTT1=
EXTT2=
EXTT3=
EXTT4=
EXTT5=
EXTT6=
EXTT7=
EXTT8=
EXTT9=
EXTT10=
EXTT11=
EXTT12=
EXTT13=
EXTT14=
EXTT15=
PLAYORDER=
